<svg width="182" height="63" viewBox="0 0 182 63" fill="none" xmlns="http://www.w3.org/2000/svg">
<path d="M0 30.7305H7.34375V22.7305H30.1602C31.5664 22.7305 32.7539 23.8281 32.7539 25.3672V30.7305H40.0938V25.3672C40.0938 23.0391 39.3477 20.9727 37.9844 19.3867C39.3477 17.7617 40.0938 15.6953 40.0938 13.3672V12.0039H32.7539V13.3672C32.7539 14.9023 31.5664 16.0469 30.1602 16.0469H7.34375V0H0V30.7305Z" fill="white"/>
<path d="M53.5444 30.7305H73.767C79.7436 30.7305 83.7006 26.6875 83.7006 21.3672C83.7006 16.0469 79.7436 12.0039 73.767 12.0039H53.5444C47.5639 12.0039 43.6069 16.0469 43.6069 21.3672C43.6069 26.6875 47.5639 30.7305 53.5444 30.7305ZM50.9506 21.3672C50.9506 19.8281 52.1342 18.6836 53.5444 18.6836H73.767C75.1733 18.6836 76.3608 19.8281 76.3608 21.3672C76.3608 22.9062 75.1733 24.0469 73.767 24.0469H53.5444C52.1342 24.0469 50.9506 22.9062 50.9506 21.3672Z" fill="white"/>
<path d="M87.2137 21.3672V30.7305H94.5575V21.3672C94.5575 19.8281 95.7411 18.6836 97.1512 18.6836H127.307V12.0039H97.1512C91.1708 12.0039 87.2137 16.0469 87.2137 21.3672Z" fill="white"/>
<path d="M140.758 30.7305H163.574V33.4141C163.574 34.9492 162.387 36.0938 160.981 36.0938H130.821V42.7773H160.981C166.957 42.7773 170.914 38.7305 170.914 33.4141V12.0039H163.574V24.0469H140.758C139.348 24.0469 138.164 22.9062 138.164 21.3672V12.0039H130.821V21.3672C130.821 26.6875 134.778 30.7305 140.758 30.7305Z" fill="white"/>
<path d="M174.427 30.7305H181.771V0H174.427V30.7305Z" fill="white"/>
<path d="M59.6794 53.0596H59.9606L63.945 58.7159L67.8981 53.0596H68.1637V62.3409H67.2262V55.6065L64.0544 60.1221H63.7887L60.6325 55.669V62.3409H59.6794V53.0596Z" fill="white"/>
<path d="M77.2443 53.3252H81.9006V54.2002H78.1974V57.2315H81.0256V58.1065H78.1974V61.4659H81.9631V62.3409H77.2443V53.3252Z" fill="white"/>
<path d="M90.6368 53.3252H92.668C93.0743 53.3252 93.4493 53.3877 93.793 53.5127C94.1446 53.6299 94.4493 53.7901 94.6993 53.9971C94.9571 54.208 95.1563 54.458 95.293 54.7471C95.4376 55.0284 95.5118 55.3409 95.5118 55.6846C95.5118 56.0909 95.4063 56.458 95.1993 56.7784C95.0001 57.1026 94.7071 57.3682 94.3243 57.5752C94.8438 57.7627 95.254 58.0557 95.5587 58.4502C95.8712 58.8369 96.0274 59.2901 96.0274 59.8096C96.0274 60.1768 95.9493 60.5127 95.793 60.8252C95.6446 61.1299 95.4337 61.3955 95.1524 61.6221C94.879 61.8526 94.5509 62.0284 94.168 62.1534C93.793 62.2784 93.379 62.3409 92.9337 62.3409H90.6368V53.3252ZM92.9337 61.4659C93.5782 61.4659 94.0977 61.3174 94.4962 61.0127C94.8907 60.7002 95.0899 60.2862 95.0899 59.7627C95.0899 59.2549 94.8907 58.8409 94.4962 58.5284C94.0977 58.2159 93.5782 58.0596 92.9337 58.0596H91.5899V61.4659H92.9337ZM92.668 57.2315C93.2501 57.2315 93.7149 57.0987 94.0587 56.8252C94.4024 56.5557 94.5743 56.1924 94.5743 55.7315C94.5743 55.2627 94.3946 54.8955 94.043 54.6221C93.6993 54.3409 93.2384 54.2002 92.668 54.2002H91.5899V57.2315H92.668Z" fill="white"/>
<path d="M104.702 53.3252H105.655V61.4659H109.28V62.3409H104.702V53.3252Z" fill="white"/>
<path d="M117.758 53.3252H122.414V54.2002H118.711V57.2315H121.539V58.1065H118.711V61.4659H122.477V62.3409H117.758V53.3252Z" fill="white"/>
</svg>
